#!OML:ASF \\sashay\E\Suitcase\Project 1\Capture day 1\Session 1\Male1.ASF
:FULLY-SPECIFIED
:DEGREES
1268
root -0.690917 17.2043 20.514 5.2176 2.30161 -4.10355
lowerback 3.99706 -1.84979 2.95374
upperback -1.70558 -2.1762 3.36328
thorax -3.98499 -1.11255 1.98131
lowerneck -22.036 1.2218 0.245719
upperneck 11.8077 2.49375 -5.3495
head 7.287 0.673618 -1.50164
rclavicle -1.72943e-014 -9.54166e-015
rhumerus -61.5278 -39.1179 -32.2537
rradius 9.9372
rwrist 19.1333
rhand -10.5049 7.52089
rfingers 7.12502
rthumb 15.4974 -21.878
lclavicle -1.72943e-014 -9.54166e-015
lhumerus -37.741 2.43433 86.6262
lradius 34.2442
lwrist -2.71033
lhand -5.68682 42.5591
lfingers 7.12502
lthumb 20.1334 71.5358
rfemur -4.31181 -0.415963 29.9411
rtibia 14.1147
rfoot -14.1996 -13.0709
rtoes 14.3928
lfemur -5.45349 -6.27185 -8.45473
ltibia 17.4327
lfoot -16.2188 5.49817
ltoes -6.63817
1269
root -0.686924 17.2032 20.486 5.33974 2.32669 -3.90002
lowerback 4.04253 -1.86798 2.82723
upperback -1.64422 -2.2106 3.29143
thorax -3.9442 -1.12709 1.97991
lowerneck -22.1054 1.11991 0.0258549
upperneck 11.6574 2.3637 -5.05179
head 7.23686 0.632349 -1.38327
rclavicle -6.41081e-015 -1.55052e-014
rhumerus -61.2848 -39.4756 -32.3628
rradius 9.75774
rwrist 19.1968
rhand -10.9035 7.45442
rfingers 7.12502
rthumb 15.1135 -21.9738
lclavicle -6.41081e-015 -1.55052e-014
lhumerus -37.4705 2.10831 86.6835
lradius 34.2507
lwrist -2.28646
lhand -5.31875 42.2702
lfingers 7.12502
lthumb 20.4871 71.2093
rfemur -4.76703 -0.636019 29.6857
rtibia 14.5778
rfoot -14.2207 -12.9874
rtoes 14.4356
lfemur -5.59826 -6.29039 -8.69626
ltibia 17.3344
lfoot -15.9791 5.75646
ltoes -7.74002
1270
root -0.689678 17.2023 20.4613 5.4491 2.15339 -3.73951
lowerback 4.05581 -1.83839 2.6356
upperback -1.56669 -2.1866 3.23967
thorax -3.86582 -1.11078 2.02959
lowerneck -22.2374 1.06384 -0.121558
upperneck 11.593 2.29152 -4.82231
head 7.22937 0.612855 -1.29244
rclavicle 4.08006e-014 8.34896e-015
rhumerus -61.0321 -39.7569 -32.5136
rradius 9.60915
rwrist 19.104
rhand -11.0085 7.43129
rfingers 7.12502
rthumb 15.0124 -22.0045
lclavicle 4.08006e-014 8.34896e-015
lhumerus -37.1423 2.29053 86.5901
lradius 34.2894
lwrist -2.58009
lhand -5.44098 42.7538
lfingers 7.12502
lthumb 20.3697 71.7055
rfemur -5.23095 -0.583567 29.5114
rtibia 15.0627
rfoot -14.4396 -12.757
rtoes 14.6059
lfemur -5.69309 -6.22628 -8.88422
ltibia 17.2746
lfoot -15.9133 5.95971
ltoes -7.60146
1271
root -0.701737 17.1917 20.4393 5.34627 1.88539 -4.05737
lowerback 4.24533 -1.65171 2.79253
upperback -1.4272 -1.91922 3.3877
thorax -3.83265 -0.97919 2.0784
lowerneck -22.3798 0.886841 -0.586073
upperneck 11.583 2.14635 -4.53769
head 7.23671 0.547877 -1.14182
rclavicle -8.15017e-015 1.35174e-014
rhumerus -61.0887 -40.1716 -32.1934
rradius 9.4288
rwrist 18.8519
rhand -11.2414 8.29992
rfingers 7.12502
rthumb 14.7879 -21.1525
lclavicle -8.15017e-015 1.35174e-014
lhumerus -37.0275 2.08787 86.8178
lradius 34.5461
lwrist -2.68519
lhand -5.48524 42.5551
lfingers 7.12502
lthumb 20.3271 71.5114
rfemur -5.47003 0.122698 29.9192
rtibia 15.5638
rfoot -14.5181 -13.2707
rtoes 15.4395
lfemur -5.52645 -5.94169 -8.50053
ltibia 17.1119
lfoot -15.6263 6.11577
ltoes -8.56379
1272
root -0.702489 17.1866 20.4209 5.21874 1.84887 -3.91695
lowerback 4.4574 -1.69745 2.63673
upperback -1.31994 -1.98641 3.30155
thorax -3.83756 -1.00967 2.086
lowerneck -22.4076 0.85655 -0.463693
upperneck 11.4647 2.0585 -4.50933
head 7.20043 0.516432 -1.16268
rclavicle 2.00773e-014 -1.51076e-014
rhumerus -60.8506 -40.408 -32.4414
rradius 9.32716
rwrist 18.9876
rhand -11.2564 8.22902
rfingers 7.12502
rthumb 14.7735 -21.2244
lclavicle 2.00773e-014 -1.51076e-014
lhumerus -36.9849 1.84036 86.7407
lradius 34.7368
lwrist -2.47843
lhand -5.34107 43.0521
lfingers 7.12502
lthumb 20.4657 71.9935
rfemur -5.62261 0.150121 29.7725
rtibia 16.0126
rfoot -15.0289 -13.1732
rtoes 14.5061
lfemur -5.29016 -5.91127 -8.67493
ltibia 16.8575
lfoot -15.5095 6.15566
ltoes -10.7261
1273
root -0.710752 17.1792 20.4098 5.21511 1.75168 -3.68449
lowerback 4.49551 -1.62274 2.27392
upperback -1.24576 -1.90989 3.29955
thorax -3.77091 -0.963155 2.28018
lowerneck -22.3615 0.750486 -0.849619
upperneck 11.4448 1.98629 -4.25044
head 7.17774 0.490391 -1.02402
rclavicle 1.59525e-014 1.07344e-014
rhumerus -60.8545 -40.6091 -32.2116
rradius 9.28336
rwrist 18.9549
rhand -11.4091 8.55972
rfingers 7.12502
rthumb 14.6264 -20.9045
lclavicle 1.59525e-014 1.07344e-014
lhumerus -36.9954 1.7279 86.861
lradius 34.9481
lwrist -2.53234
lhand -5.54838 42.5696
lfingers 7.12502
lthumb 20.2664 71.5323
rfemur -5.83095 0.56197 29.5555
rtibia 16.4134
rfoot -15.0089 -13.5419
rtoes 15.4718
lfemur -5.09607 -5.93939 -8.92153
ltibia 16.4843
lfoot -15.18 6.33658
ltoes -11.7228
1274
root -0.706185 17.1826 20.4058 5.19281 1.72365 -3.60573
lowerback 4.43541 -1.63173 2.31356
upperback -1.12105 -1.92977 3.2237
thorax -3.61106 -0.974558 2.17527
lowerneck -22.4799 0.781293 -0.687822
upperneck 11.3735 1.98934 -4.31649
head 7.17549 0.492779 -1.07133
rclavicle -7.65321e-015 6.36111e-015
rhumerus -60.6628 -40.9434 -32.3422
rradius 9.1362
rwrist 19.0132
rhand -11.5424 8.43853
rfingers 7.12502
rthumb 14.4979 -21.0349
lclavicle -7.65321e-015 6.36111e-015
lhumerus -36.782 1.64249 86.8009
lradius 34.986
lwrist -2.43372
lhand -5.70139 42.4374
lfingers 7.12502
lthumb 20.1194 71.4157
rfemur -6.01447 0.275109 29.4369
rtibia 16.7632
rfoot -15.4378 -13.2379
rtoes 14.8423
lfemur -4.775 -5.8871 -9.05361
ltibia 15.9698
lfoot -14.9376 6.39123
ltoes -11.896
1275
root -0.658909 17.1951 20.3931 5.35451 2.37493 -2.71827
lowerback 4.3287 -1.88338 2.17476
upperback -1.17723 -2.28808 2.8701
thorax -3.6103 -1.15366 1.91119
lowerneck -22.5112 0.738009 -0.715375
upperneck 11.3784 1.9421 -4.32719
head 7.18117 0.467332 -1.0764
rclavicle 1.58034e-014 -7.55382e-015
rhumerus -60.5893 -41.0784 -32.2968
rradius 9.04505
rwrist 19.1685
rhand -11.6507 8.95936
rfingers 7.12502
rthumb 14.3935 -20.5216
lclavicle 1.58034e-014 -7.55382e-015
lhumerus -36.7675 1.68389 86.7908
lradius 35.0844
lwrist -2.43892
lhand -5.51244 43.054
lfingers 7.12502
lthumb 20.301 72.013
rfemur -6.1987 -1.92188 28.2026
rtibia 16.8897
rfoot -15.1924 -11.7723
rtoes 15.2151
lfemur -4.85167 -6.52019 -10.2081
ltibia 15.6462
lfoot -14.5141 5.63793
ltoes -8.30934
1276
root -0.649429 17.2038 20.3824 5.29181 2.62305 -2.8043
lowerback 4.45242 -1.98286 2.44603
upperback -1.15286 -2.40003 2.87594
thorax -3.66444 -1.215 1.77858
lowerneck -22.4287 0.720802 -0.835401
upperneck 11.2734 1.91654 -4.13725
head 7.12871 0.47138 -0.997116
rclavicle 3.03147e-015 2.78299e-015
rhumerus -60.5273 -41.2085 -32.2547
rradius 9.05843
rwrist 19.2862
rhand -11.6064 8.50181
rfingers 7.12502
rthumb 14.4362 -20.9761
lclavicle 3.03147e-015 2.78299e-015
lhumerus -36.8278 1.63643 86.8223
lradius 35.339
lwrist -2.3868
lhand -5.21123 43.2928
lfingers 7.12502
lthumb 20.5904 72.2207
rfemur -6.20559 -2.76704 28.24
rtibia 16.9163
rfoot -15.447 -11.1923
rtoes 13.9196
lfemur -4.71452 -6.63183 -10.1431
ltibia 15.3652
lfoot -14.5436 6.12297
ltoes -11.5947
1277
root -0.653168 17.196 20.3771 5.18175 2.50998 -3.17271
lowerback 4.49634 -1.96307 2.75911
upperback -1.03113 -2.35367 2.98927
thorax -3.5721 -1.19673 1.71566
lowerneck -22.6447 0.786885 -0.566108
upperneck 11.4237 1.99252 -4.47529
head 7.22221 0.481079 -1.1434
rclavicle -3.21534e-014 2.0276e-014
rhumerus -60.2934 -41.4623 -32.3346
rradius 9.00664
rwrist 19.7326
rhand -11.4666 8.31474
rfingers 7.12502
rthumb 14.571 -21.1535
lclavicle -3.21534e-014 2.0276e-014
lhumerus -36.6892 1.54286 86.8108
lradius 35.4263
lwrist -2.21586
lhand -5.54834 43.3701
lfingers 7.12502
lthumb 20.2665 72.3328
rfemur -6.08663 -2.57553 28.6405
rtibia 16.8833
rfoot -15.2322 -11.2719
rtoes 15.1705
lfemur -4.53341 -6.59071 -9.73705
ltibia 15.2335
lfoot -14.7214 5.96242
ltoes -11.8447
1278
root -0.657172 17.1994 20.3708 5.12196 2.58611 -3.21475
lowerback 4.61299 -1.95027 2.78223
upperback -1.02568 -2.32755 3.04741
thorax -3.63111 -1.18368 1.76552
lowerneck -22.5581 0.715463 -0.753079
upperneck 11.3468 1.93495 -4.39885
head 7.17903 0.455068 -1.09494
rclavicle -2.05245e-014 -4.49253e-014
rhumerus -60.4298 -41.5476 -32.0309
rradius 9.11554
rwrist 19.7356
rhand -11.2702 8.13807
rfingers 7.12502
rthumb 14.7601 -21.3164
lclavicle -2.05245e-014 -4.49253e-014
lhumerus -36.5925 1.52246 86.9348
lradius 35.378
lwrist -2.27491
lhand -5.64118 43.2975
lfingers 7.12502
lthumb 20.1773 72.2696
rfemur -6.01437 -2.67484 28.7008
rtibia 16.7892
rfoot -15.3852 -11.2301
rtoes 14.3498
lfemur -4.53048 -6.6544 -9.68043
ltibia 15.2636
lfoot -14.5671 6.14207
ltoes -11.53
